# xmcd CD database file
#
# Track frame offsets:
#	150
#	9090
#	26539
#	49177
#	64936
#	88985
#
# Disc length: 1491 seconds
#
# Revision: 0
# Processed by: cddbd v1.5PL3 Copyright (c) Steve Scherf et al.
# Submitted via: CDex 1.51
#
DISCID=4405d106
DTITLE=Issac Delgado, - La Vida Es Un Carnival
DYEAR=1900
DGENRE=Salsa
TTITLE0=La Vida Es Un Carnival (Opening)
TTITLE1=Asi Era Ella
TTITLE2=Que Me Disculpen
TTITLE3=La Primera Noche
TTITLE4=El Punto Cubano
TTITLE5=La Vida Es Un Carnival
EXTD=
EXTT0=
EXTT1=
EXTT2=
EXTT3=
EXTT4=
EXTT5=
PLAYORDER=
